<svg width="51" height="47" viewBox="0 0 51 47" xmlns="http://www.w3.org/2000/svg" xmlns:xlink="http://www.w3.org/1999/xlink" xmlns:figma="http://www.figma.com/figma/ns"><title>Combined Shape</title><desc>Created using Figma</desc><g figma:type="canvas"><use xlink:href="#a" fill="#DFE3E6" figma:type="vector-operation"/></g><defs><path id="a" fill-rule="evenodd" d="M41.823 46.796c-.828 0-1.5-.68-1.5-1.517V6.087l-14.12 19.13a1.49 1.49 0 0 1-2.439-.047L8.312 2.466A1.526 1.526 0 0 1 8.697.358a1.49 1.49 0 0 1 2.086.39l14.266 20.96L40.621.613c.863-1.17 2.702-.553 2.702.906v42.244h4.676l-.027-42.155c0-.838.67-1.517 1.499-1.517.828 0 1.5.678 1.5 1.515L51 45.278c0 .838-.671 1.518-1.5 1.518h-7.677zM3 6.708v37.26h4.733V21.996c0-.837.672-1.516 1.5-1.516.829 0 1.5.679 1.5 1.516v23.488c0 .837-.671 1.516-1.5 1.516H1.5C.672 47 0 46.321 0 45.484V1.807C0 .316 1.905-.28 2.738.95l22.403 33.104 9.837-13.198a1.49 1.49 0 0 1 2.1-.299c.662.504.795 1.454.296 2.123L26.281 37.566a1.49 1.49 0 0 1-2.436-.057L3 6.71z"/></defs></svg>